<svg id="圖層_1" data-name="圖層 1" xmlns="http://www.w3.org/2000/svg" viewBox="0 0 697.82 258.48"><defs><style>.cls-1{fill:#fff}.cls-3{fill:#565656}</style></defs><path class="cls-1" d="M741.28 114.28l-40-.23-.09 16.75 26.7.15c8.85.05 12.86 5.63 12.8 16.28l-.36 63.59c0 9-5.78 13.47-16.43 13.41l-93.14-.53c-10.35-.06-15.43-4.14-15.38-12.69l.38-67.5c.06-9.3 5.33-13.17 16.43-13.11l20 .12.09-16.75-35.54-.2a6.3 6.3 0 11.07-12.6l124.64.71c3.75 0 6.14 2.44 6.12 6.34s-2.57 6.28-6.29 6.26zm-13.79 76.82l-22.2-.13c-11.25-.06-17.37-5.05-17.31-14.5l.19-33.14-23.25-.14c-.13 22.5-9.54 42.1-25.64 49.5-3.91 1.78-7.36 1.76-9-1.55-1.92-3.91-.85-7.95 2.76-9.88 12.79-6.83 18.86-19.54 19-38.14l-18.6-.11c-3.3 0-4.81 1.48-4.83 4.77l-.33 58.65c0 3.15 1.32 4.66 4.17 4.68l91.49.52c2.55 0 3.46-.88 3.48-4zM688.33 114l-23.25-.14-.08 16.73 23.25.14zm39.41 34.37c0-3.3-1.33-4.81-4.33-4.82l-22.35-.13-.17 30.15c0 3 2.23 4.81 5.37 4.83l21.3.12zm-136.13 62.75c-21.26-7.32-40.25-17.78-55.17-31.06l33.2.19c8.4 0 12.47-4 12.52-12.68l.18-31.8c0-9-3.37-13.07-11.47-13.12l-38-.21v-9l56 .32c4 0 6.61-2.21 6.78-6.26s-2.21-6.62-6.41-6.64l-56.24-.32v-5.85c0-3.45-2.67-5.12-6.57-5.44-3.9.13-6.61 1.76-6.63 5.06v6.15l-54.44-.31c-3.9 0-6.17 2.52-6.34 6.41-.17 4 2.06 6.47 6 6.49l54.75.31-.05 9-35.45-.2c-8.55 0-12.32 3.68-12.37 12.23l-.2 34.2c0 7.5 3.84 11.12 13.29 11.17l32.45.19c-10 10.59-27.36 19.94-54.26 28.19-4.21 1.32-5.73 4.31-4.85 8.52 1.48 3.91 4.47 5.27 8.68 4 24.64-7.66 41.75-17.31 52.3-26.85L519.1 222c0 3.9 2.36 6 6.41 6.33 4-.12 6.76-2.06 6.79-6l.17-30c13 11.78 31.22 22.38 54.57 31.22a7.91 7.91 0 005.55.18 5.77 5.77 0 003.47-3.73c1.37-3.89-.56-7.51-4.45-8.88zm-27.11-77.4c4.2 0 5.4.63 5.37 5.13v6l-37.1-.21.06-11.1zm-74.69 34.52c-4.35 0-5.69-1.53-5.67-5.43v-6.75l.06-11.7v-6.53c.17-3.38 1.35-4.56 5.1-4.54l30.19.17v11.63l-26.49-.16c-4.28 0-6.76 2.28-6.94 5.81s2.27 5.87 6.55 5.89l26.89.15v11.63zm42.79.25l.07-11.63 35.38.2a11.94 11.94 0 001.72-.11v6.35c0 4-1.38 5.39-5.43 5.37zm-99.93 45.71l-19-9.64h7.76c6.75 0 10.52-3.39 10.55-9.84l.29-50.5c.05-8.4-3.38-12.17-11.18-12.21l-87.6-.5c-7 0-11.26 3.38-11.3 9.83l-.3 52.45c0 6.9 3.84 10.22 11.64 10.27h5.51l-19.14 9.42c-5.47 2.7-7.36 6.31-6 10.15 2 3.53 5.93 4.6 11.4 1.9L348 214.4c5.47-2.7 7.36-6.3 6-10.14l44.66.26c-1.42 3.83.43 7.45 5.87 10.21l22.62 11.47c5.44 2.75 9.38 1.73 11.42-1.78 1.43-3.83-.45-7.42-5.9-10.22zm-98.79-21.95v-9.85l.19-32.52v-6.93c.16-1 .91-1.64 2.26-1.64l81.15.47c1.95 0 2.69.91 2.68 2v10.45a14 14 0 00-1.65-.11l-75.81-.43c-4.3 0-6.79 1.92-7 4.91s2.28 5 6.58 5l75.81.43a13.86 13.86 0 002-.13v.1l-.05 9v.09c-.52-.06-1.07-.09-1.66-.1l-75.81-.43c-4.3 0-6.79 1.92-7 4.91s2.28 5 6.58 5l75.82.43a15.31 15.31 0 002-.13v10.04c0 1.35-.61 1.95-2.11 1.94l-81.44-.47c-1.8-.08-2.55-.83-2.54-2.03zm-11.31-68.12l107.69.62c6.3 0 9.32-3.1 9.36-9.1l.06-12c0-6.3-3.54-9.92-9.84-10L324.4 93.1c-6.3 0-10.22 2.94-10.25 8.49l-.09 14.4c-.06 5.1 3.11 8.11 8.51 8.14zm104.21-19.95c1.35 0 2.25.76 2.23 3.16v4.35c0 2.1-.62 2.7-2 2.69l-24.3-.14.06-10.2zm-34.65-.2l-.06 10.2-28.65-.18.06-10.2zm-64.65-.37l25.35.15-.05 10.2-25.35-.15c-1.95 0-2.7-.76-2.69-2.71v-5.55c.19-1.05.94-1.65 2.74-1.94zm300.01 192.91c8.43 0 15.29-7.89 15.29-17.6s-6.86-17.59-15.29-17.59a13.85 13.85 0 00-8.6 3.06l-1 .79-.45-1.2a3.26 3.26 0 00-2.95-2.43h-.19a2.72 2.72 0 00-1.93.74c-.94.89-1.46 2.58-1.46 4.75v36.59c0 3.26 1.31 5.2 3.58 5.33a2.8 2.8 0 002.15-.72 6 6 0 001.33-4.31V292.8l1.48 1.06a13.78 13.78 0 008.04 2.66zm-9.91-17.6c0-6 4.12-10.82 9.19-10.82S636 273 636 278.92s-4.12 10.83-9.18 10.83-9.24-4.85-9.24-10.83zm-72.18-18.2a17.6 17.6 0 1017.12 17.59 17.38 17.38 0 00-17.12-17.59zm0 28.16c-5.45 0-9.87-4.74-9.87-10.57s4.42-10.56 9.87-10.56 9.87 4.74 9.87 10.56-4.43 10.57-9.87 10.57zm109.42-39.6a4.06 4.06 0 00-4 4 4 4 0 008 0 3.86 3.86 0 00-1.16-2.86 3.79 3.79 0 00-2.84-1.14zm-67.59 47.24c8.42 0 15.28-7.89 15.28-17.6s-6.86-17.59-15.28-17.59a13.81 13.81 0 00-8.6 3.06l-1 .79-.45-1.2a3.27 3.27 0 00-2.95-2.43H574a2.72 2.72 0 00-1.93.74c-.94.89-1.46 2.58-1.46 4.75v36.59c0 3.26 1.3 5.2 3.58 5.33a2.74 2.74 0 002.14-.72 6 6 0 001.34-4.31V292.8l1.49 1.06a13.76 13.76 0 008.07 2.66zm-9.91-17.6c0-6 4.12-10.82 9.18-10.82s9.19 4.85 9.19 10.82-4.12 10.83-9.19 10.83-9.18-4.85-9.18-10.83zm77.54 17.16a2.79 2.79 0 002.15-.72c.86-.81 1.33-2.35 1.33-4.32v-23.57c0-1.68-.34-5.61-3.48-5.78h-.19a2.72 2.72 0 00-1.93.74c-.94.9-1.46 2.58-1.46 4.75v23.58c0 3.24 1.31 5.24 3.58 5.32zm83.51-33.79a2.8 2.8 0 00-2.12-.74 3.26 3.26 0 00-3 2.43l-.45 1.2-1-.79a13.85 13.85 0 00-8.6-3.06c-8.43 0-15.29 7.89-15.29 17.59s6.86 17.6 15.29 17.6a13.79 13.79 0 008-2.65l1.49-1.06v4.31a8.79 8.79 0 01-2 5.2c-1.36 1.44-3.59 2.15-6.81 2.15a10.43 10.43 0 01-6.55-2.69l-.09-.1a10.19 10.19 0 00-2.1-1.41 3.55 3.55 0 00-1.41-.28 3.33 3.33 0 00-2.44.92 3 3 0 00-.94 2.3c0 1.86 1.13 3.41 3.44 4.72a19.44 19.44 0 009.63 2.1c6 0 10.31-1.18 12.77-3.51 1.89-1.79 3.4-3.22 3.56-8.46V267c.08-2.13-.44-3.82-1.38-4.71zM724 289.75c-5.06 0-9.18-4.85-9.18-10.83s4.08-10.82 9.18-10.82 9.19 4.85 9.19 10.82-4.19 10.83-9.19 10.83zm-55.26 1.39c0 3.26 1.31 5.21 3.58 5.33a2.75 2.75 0 002.15-.72 6 6 0 001.33-4.31v-24.72c0-1.68-.34-5.61-3.48-5.78h-.19a2.7 2.7 0 00-1.93.74c-.94.89-1.46 2.57-1.46 4.74zM698 272.47c0-3.75-.88-6.57-2.62-8.4a7.84 7.84 0 00-2.14-1.57 13 13 0 00-5.84-1.17 12 12 0 00-5.81 1.37 10.58 10.58 0 00-3.94 3.79v3.73a7.21 7.21 0 01.58-.66 8 8 0 015.92-2.24c2.22 0 3.86.65 4.88 1.95s1.46 3.18 1.46 5.91v16.56a4.41 4.41 0 000 .52v.38c0 2.37 1.34 3.73 3.76 3.83a3.6 3.6 0 002.71-.84 3.7 3.7 0 001-2.77v-20.39zm-177.68-.39c0-3.75-.88-6.58-2.62-8.41a7.69 7.69 0 00-2.14-1.57 13.07 13.07 0 00-5.83-1.16 12 12 0 00-5.82 1.37 10.58 10.58 0 00-3.91 3.79v3.72c.18-.22.38-.44.58-.65a8 8 0 015.92-2.25 5.89 5.89 0 014.89 1.95c1 1.25 1.45 3.18 1.45 5.92v16.56a4.41 4.41 0 000 .52v.37c0 2.38 1.34 3.74 3.76 3.84a3.56 3.56 0 002.71-.84 3.72 3.72 0 001-2.77zm-183.11 18.61c0 1.68.34 5.61 3.47 5.78a2.79 2.79 0 002.13-.73c.94-.9 1.46-2.58 1.46-4.75v-24.72c0-3.26-1.31-5.2-3.59-5.33h-.2a2.71 2.71 0 00-1.94.72 6 6 0 00-1.34 4.34zm47.11-36.29c0-3.27-1.31-5.21-3.58-5.34a2.82 2.82 0 00-2.15.72 6 6 0 00-1.33 4.32v11.12l-1.48-1.06a13.77 13.77 0 00-8-2.65c-8.43 0-15.29 7.89-15.29 17.59s6.86 17.59 15.29 17.59a13.84 13.84 0 008.6-3.05l1-.8.45 1.2a3.24 3.24 0 002.95 2.43 2.75 2.75 0 002.12-.73c.94-.9 1.46-2.58 1.46-4.75zm-15.86 35.53c-5.06 0-9.18-4.86-9.18-10.83s4.12-10.83 9.18-10.83 9.19 4.86 9.19 10.83-4.12 10.83-9.19 10.83zm55.89-17.46c0-3.75-.89-6.57-2.63-8.4a7.5 7.5 0 00-2.14-1.57 12.9 12.9 0 00-5.83-1.17 12 12 0 00-5.82 1.37 10.58 10.58 0 00-3.94 3.79v3.73c.19-.23.38-.45.59-.66a8 8 0 015.92-2.24c2.22 0 3.86.65 4.88 1.95s1.46 3.17 1.46 5.91v17.46c0 2.37 1.33 3.73 3.75 3.83a3.64 3.64 0 002.72-.84 3.74 3.74 0 001-2.77zm-29.29 18.67c0 3.26 1.3 5.21 3.58 5.33a2.71 2.71 0 002.14-.72 6 6 0 001.34-4.31v-24.72c0-1.68-.34-5.61-3.48-5.78h-.2a2.72 2.72 0 00-1.93.74c-.94.89-1.46 2.57-1.45 4.74zm95.94-.39c0 3.26 1.31 5.2 3.58 5.33a2.75 2.75 0 002.15-.72c.86-.81 1.33-2.35 1.33-4.32v-36c0-1.68-.34-5.61-3.48-5.77h-.19a2.72 2.72 0 00-1.93.74c-.94.89-1.46 2.58-1.46 4.75zm-33.36 3.36a18.61 18.61 0 009.86 2.39c5.12 0 9-1 11.67-2.94s3.82-4.64 3.82-8.33a7.43 7.43 0 00-2.39-5.94c-1.67-1.47-4.69-2.7-9-3.65l-2.9-.64a22.91 22.91 0 01-5.75-1.75 3.14 3.14 0 01-1.65-2.81 3.64 3.64 0 011.74-3.25 8.26 8.26 0 014.42-1 9.89 9.89 0 012.82.44 7.31 7.31 0 012.36 1.14c.16.12.42.32.75.59 2.1 1.64 3.24 2 3.83 2a3 3 0 002.14-.8 2.67 2.67 0 00.82-2c0-1.73-1.13-3.22-3.44-4.53a18.72 18.72 0 00-9.27-2.1c-4.19 0-7.53 1-9.93 2.93a9.43 9.43 0 00-3.54 7.8 7.32 7.32 0 002.47 5.83c1.74 1.53 4.75 2.81 9 3.82l3.85.92c1.5.34 6.12 1.44 6.12 4.4a3.82 3.82 0 01-2 3.4 9.1 9.1 0 01-4.77 1.05 12.7 12.7 0 01-4-.54 7.64 7.64 0 01-2.95-1.85c-.23-.23-.55-.57-1-1-1.27-1.4-2.45-2.1-3.53-2.1a3.11 3.11 0 00-3.28 3.28c.09 1.99 1.27 3.73 3.73 5.24zM315 284.94c0 3.75.88 6.58 2.62 8.41a7.69 7.69 0 002.14 1.57 13.07 13.07 0 005.83 1.16 12 12 0 005.82-1.37 10.55 10.55 0 003.94-3.78v-3.73c-.18.22-.38.44-.58.65a8 8 0 01-5.92 2.25 5.9 5.9 0 01-4.9-2c-1-1.25-1.46-3.18-1.46-5.92v-16.5a4.12 4.12 0 000-.51v-.39c0-2.38-1.33-3.74-3.75-3.84h-.24a3.46 3.46 0 00-2.48.84 3.75 3.75 0 00-1 2.77zM79.77 310a29.41 29.41 0 01-29.38-29.24l-.74-171.34A29.41 29.41 0 0178.9 80l171.33-.74h.13a29.36 29.36 0 0129.37 29.24l.75 171.33a29.4 29.4 0 01-29.25 29.51L79.9 310z" transform="translate(-49.65 -51.55)"/><path d="M250.36 89h-.09l-171.33.74a19.61 19.61 0 00-19.5 19.67l.75 171.33a19.6 19.6 0 0019.58 19.5h.08l171.34-.74a19.6 19.6 0 0019.5-19.67l-.75-171.33A19.61 19.61 0 00250.36 89z" transform="translate(-49.65 -51.55)" fill="#ef7c1c"/><path class="cls-1" d="M238 110.12a5 5 0 01-5-4.63c-2.23-42-32.1-44.08-38.25-44.06l-56.16.24c-27.5.11-40.68 21.74-42.13 44.49a5 5 0 01-5 4.58 5 5 0 01-5-5.29c2-31.74 22.82-53.54 52.15-53.66l56.16-.24C216 51.46 240.89 65.53 243 105a5 5 0 01-5 5.12zm.77 146.94c0 5.9-5.14 10.69-11.55 10.72l-123.68.54c-6.4 0-11.61-4.72-11.64-10.62l-.54-125.54c0-5.88 5.14-10.67 11.54-10.7l123.68-.54c6.41 0 11.61 4.72 11.64 10.6z" transform="translate(-49.65 -51.55)"/><path class="cls-3" d="M149.12 188.15A16 16 0 00181 188z" transform="translate(-49.65 -51.55)"/><circle class="cls-3" cx="155.72" cy="119.94" r="9.79"/><circle class="cls-3" cx="74.92" cy="120.28" r="9.79"/></svg>